# xmcd CD database file
#
# Track frame offsets:
#	150
#	17772
#	28154
#	43016
#	56615
#	69660
#	86490
#	96257
#	118358
#	134575
#	150430
#	167378
#
# Disc length: 2448 seconds
#
# Revision: 0
# Processed by: cddbd v1.4PL0 Copyright (c) Steve Scherf et al.
# Submitted via: CDex 1.40Beta9
#
DISCID=9f098e0c
DTITLE=Louisiana Red - Dead Stray Dog
DYEAR=1976
DGENRE=Blues
TTITLE0=Dead Stray Dog
TTITLE1=New Jersey Women
TTITLE2=Held Up In One Town
TTITLE3=Bad Case Of The Blues
TTITLE4=Caught My Man And Gone
TTITLE5=My Heart's A Loser
TTITLE6=Riding On A Tall White Horse
TTITLE7=Cold White Sheet
TTITLE8=Going Train Blues
TTITLE9=Back To The Road Again
TTITLE10=My Baby's Coming Home 
TTITLE11=Cold Feeling
EXTD=YEAR: 1976 ID3G: 0
EXTT0=
EXTT1=
EXTT2=
EXTT3=
EXTT4=
EXTT5=
EXTT6=
EXTT7=
EXTT8=
EXTT9=
EXTT10=
EXTT11=
PLAYORDER=
